<svg width="20" height="15" viewBox="0 0 20 15" fill="none" xmlns="http://www.w3.org/2000/svg">
<path d="M10.075 0C3.75 0 0 7.29943 0 7.29943C0 7.29943 3.75 14.5989 10.075 14.5989C16.25 14.5989 20 7.29943 20 7.29943C20 7.29943 16.25 0 10.075 0ZM10 2.43314C12.775 2.43314 15 4.62297 15 7.29943C15 10.0002 12.775 12.1657 10 12.1657C7.25 12.1657 5 10.0002 5 7.29943C5 4.62297 7.25 2.43314 10 2.43314ZM10 4.86629C8.625 4.86629 7.5 5.9612 7.5 7.29943C7.5 8.63766 8.625 9.73257 10 9.73257C11.375 9.73257 12.5 8.63766 12.5 7.29943C12.5 7.05612 12.4 6.83713 12.35 6.61815C12.15 7.00745 11.75 7.29943 11.25 7.29943C10.55 7.29943 10 6.76414 10 6.08286C10 5.59623 10.3 5.20693 10.7 5.01228C10.475 4.93928 10.25 4.86629 10 4.86629Z" fill="#D7D8D7"/>
</svg>
